<?xml version="1.0" standalone="no"?>
<!DOCTYPE svg PUBLIC "-//W3C//DTD SVG 20010904//EN"
 "http://www.w3.org/TR/2001/REC-SVG-20010904/DTD/svg10.dtd">
<svg version="1.0" xmlns="http://www.w3.org/2000/svg"
 width="709.000000pt" height="709.000000pt" viewBox="0 0 709.000000 709.000000"
 preserveAspectRatio="xMidYMid meet">
<metadata>
Created by potrace 1.16, written by Peter Selinger 2001-2019
</metadata>
<g transform="translate(0.000000,709.000000) scale(0.100000,-0.100000)"
fill="#000000" stroke="none">
<path d="M3139 7060 c-129 -16 -184 -25 -279 -44 -277 -57 -553 -146 -773
-250 -54 -25 -100 -46 -102 -46 -14 0 -303 -170 -400 -235 -867 -584 -1423
-1486 -1552 -2519 -19 -149 -26 -622 -11 -756 31 -278 90 -564 160 -765 134
-388 269 -652 492 -967 33 -45 62 -85 65 -88 3 -3 22 -25 41 -50 38 -50 50
-64 176 -202 124 -135 333 -326 479 -436 45 -34 296 -198 360 -235 105 -60
324 -165 450 -215 190 -75 419 -147 435 -137 6 3 10 2 10 -3 0 -6 15 -12 33
-15 17 -2 75 -14 127 -25 52 -12 149 -28 215 -37 66 -8 136 -19 155 -22 19 -4
163 -7 320 -7 334 -1 495 16 790 83 239 55 507 148 735 256 92 43 134 68 129
76 -4 8 -3 9 5 5 23 -14 242 118 451 272 166 123 267 211 422 368 288 293 511
613 686 983 52 111 156 381 177 461 65 242 95 376 110 477 9 65 19 127 21 138
30 154 29 677 0 835 -3 14 -12 74 -21 134 -62 418 -230 881 -456 1258 -58 96
-84 136 -184 278 -146 208 -442 514 -680 702 -238 188 -591 393 -850 492 -38
15 -83 33 -100 41 -125 55 -508 153 -705 180 -63 8 -131 18 -150 21 -19 3
-170 7 -335 9 -249 3 -325 1 -446 -15z m721 -103 c213 -24 465 -69 570 -102
25 -8 92 -29 150 -46 416 -126 850 -368 1205 -672 72 -62 304 -293 364 -362
18 -22 54 -67 79 -100 25 -33 49 -62 52 -65 11 -10 107 -146 146 -208 98 -158
120 -197 198 -357 209 -425 320 -851 345 -1320 62 -1135 -452 -2237 -1364
-2922 -460 -345 -1000 -569 -1572 -653 -167 -24 -458 -43 -563 -35 -41 2 -115
7 -164 10 -211 14 -463 57 -676 116 -248 69 -622 225 -786 329 -35 22 -66 40
-68 40 -10 0 -258 170 -313 215 -32 26 -76 61 -97 78 -143 115 -390 363 -474
476 -15 20 -53 69 -84 109 -282 358 -521 889 -618 1370 -49 246 -65 408 -65
687 0 236 16 429 50 600 3 17 10 55 16 85 32 166 140 520 198 645 152 327 301
579 461 779 135 170 340 381 495 511 107 89 105 87 188 148 494 362 1115 594
1727 646 90 8 524 6 600 -2z"/>
<path d="M3353 6810 c-46 -28 -64 -61 -70 -128 -5 -50 -2 -66 18 -101 39 -69
102 -94 184 -71 42 12 45 15 45 47 0 34 -1 34 -32 27 -95 -24 -138 3 -138 87
0 37 5 53 22 69 24 22 71 26 112 10 25 -9 26 -8 26 29 0 32 -4 40 -22 45 -46
12 -113 6 -145 -14z"/>
<path d="M3633 6822 c-31 -3 -33 -5 -34 -45 0 -23 -1 -93 -2 -155 l-2 -112 38
0 37 0 0 60 c0 33 4 60 9 60 5 0 22 -26 38 -59 26 -53 31 -59 67 -65 21 -4 41
-5 43 -2 2 2 -14 40 -36 85 l-41 81 17 39 c9 22 25 42 35 44 12 4 18 15 18 36
0 27 -3 31 -28 31 -33 0 -51 -17 -82 -79 -26 -53 -38 -45 -42 29 l-3 55 -32
-3z"/>
<path d="M3050 6791 c-40 -21 -80 -89 -80 -136 0 -47 28 -119 56 -146 21 -20
36 -24 87 -24 34 0 76 6 92 13 25 10 30 19 31 47 2 39 -2 41 -53 20 -54 -23
-88 -19 -113 13 l-22 27 49 7 c26 4 65 9 86 9 36 2 37 3 37 41 0 51 -21 100
-55 126 -34 27 -69 28 -115 3z"/>
<path d="M3880 6665 c-7 -79 -10 -151 -7 -160 13 -33 55 -17 97 38 87 112 77
110 72 19 l-4 -79 27 -7 c15 -4 29 -5 32 -3 6 7 21 119 29 225 l7 92 -31 0
c-26 0 -38 -9 -74 -57 -24 -32 -46 -60 -49 -63 -3 -3 -11 -14 -17 -25 -10 -16
-11 -8 -6 40 3 33 7 72 9 87 4 28 -9 38 -50 38 -22 0 -23 -4 -35 -145z"/>
<path d="M4200 6752 c0 -12 -35 -220 -45 -268 -7 -30 -5 -32 26 -39 32 -7 37
-4 97 61 l64 69 -6 -40 c-3 -22 -8 -58 -12 -81 -6 -40 -5 -41 27 -48 18 -3 33
-5 34 -4 0 2 13 70 28 152 28 159 28 166 -20 166 -15 0 -42 -23 -84 -72 l-62
-72 7 49 c18 124 18 125 5 125 -8 0 -24 3 -36 6 -13 4 -23 2 -23 -4z"/>
<path d="M2812 6742 c-9 -6 -10 -21 -2 -62 14 -73 13 -75 -15 -88 -45 -21 -54
-10 -70 88 -8 43 -7 43 -44 35 -35 -7 -37 -17 -20 -95 19 -91 67 -121 151 -96
26 8 27 7 34 -44 7 -51 7 -51 38 -44 17 3 33 8 36 11 2 2 -6 65 -19 141 -13
75 -23 143 -24 150 0 13 -45 16 -65 4z"/>
<path d="M2542 6668 c-22 -11 -30 -31 -62 -157 -6 -23 -14 -41 -17 -38 -3 3
-13 36 -23 74 -17 65 -19 68 -46 65 -16 -2 -32 -7 -36 -11 -6 -5 66 -287 77
-299 1 -1 15 3 32 8 27 10 31 18 53 100 12 50 26 90 29 90 4 0 15 -32 26 -71
18 -71 18 -71 48 -65 17 3 33 8 35 11 2 2 -10 57 -27 122 -56 203 -49 190 -89
171z"/>
<path d="M2248 6554 c-32 -17 -34 -30 -13 -81 8 -19 15 -37 15 -40 0 -2 -16
-11 -35 -19 -34 -14 -55 -12 -55 5 0 5 -7 25 -15 44 -14 34 -16 36 -45 26 -16
-6 -30 -17 -30 -24 0 -7 18 -64 41 -127 61 -172 53 -159 89 -147 35 13 36 22
10 89 l-20 51 35 14 c19 8 39 15 44 15 6 0 18 -25 27 -55 10 -30 21 -55 25
-55 18 0 59 24 59 35 0 12 -85 249 -98 271 -6 10 -12 9 -34 -2z"/>
<path d="M4815 6522 c-68 -43 -100 -189 -55 -252 25 -35 94 -63 135 -56 82 16
144 164 104 248 -31 65 -127 96 -184 60z m105 -72 c11 -11 20 -31 20 -44 0
-33 -24 -88 -50 -111 -20 -18 -24 -18 -48 -4 -42 23 -43 81 -2 147 23 37 51
41 80 12z"/>
<path d="M3380 6457 c-3 -2 -36 -7 -75 -10 -339 -26 -703 -124 -1000 -269
-389 -189 -671 -405 -975 -748 -220 -248 -426 -612 -546 -963 -71 -209 -105
-368 -134 -627 -25 -222 -25 -374 1 -602 66 -593 289 -1119 658 -1558 52 -63
232 -251 275 -289 15 -13 33 -30 40 -36 64 -61 229 -185 356 -267 268 -173
594 -313 895 -382 264 -62 426 -78 728 -72 139 2 268 7 287 10 19 4 90 16 158
27 68 11 181 36 250 56 70 19 133 36 141 36 8 1 18 -10 22 -25 6 -25 5 -28
-17 -28 -38 0 -82 -27 -100 -62 -21 -40 -15 -148 10 -201 33 -67 102 -86 155
-41 17 14 31 21 31 16 0 -9 55 0 66 11 2 1 -15 76 -36 165 -22 89 -40 171 -40
181 0 13 19 25 73 46 101 39 347 160 437 215 72 44 184 117 205 133 6 4 35 27
65 50 163 124 388 342 511 497 76 96 193 265 244 352 28 49 34 54 51 39 5 -5
26 -18 46 -29 l36 -21 14 21 c14 21 15 21 71 -15 32 -21 60 -37 63 -37 3 0 17
-9 31 -20 14 -11 30 -20 35 -20 4 0 26 36 47 80 l39 80 -48 35 c-74 54 -123
113 -116 139 4 18 -4 28 -44 54 -55 36 -57 40 -35 82 24 46 94 266 125 392 61
249 75 368 75 663 0 149 -3 299 -7 335 -72 657 -360 1263 -823 1734 -81 82
-227 212 -300 266 -33 25 -62 47 -65 51 -7 8 -193 129 -267 173 -156 93 -430
210 -628 267 -179 51 -281 71 -535 105 -54 7 -444 17 -450 11z m520 -66 c30
-5 98 -17 150 -26 227 -38 495 -122 718 -227 113 -52 332 -178 387 -221 6 -4
50 -37 100 -73 171 -125 402 -342 505 -477 47 -62 180 -245 197 -273 222 -353
359 -706 418 -1079 9 -55 18 -111 21 -125 13 -72 24 -341 19 -450 -26 -535
-185 -1034 -462 -1452 -37 -57 -70 -107 -72 -112 -2 -5 -9 -16 -17 -25 -224
-279 -290 -347 -517 -540 -144 -122 -466 -318 -647 -394 -19 -8 -62 -26 -95
-39 -236 -99 -587 -178 -865 -196 -834 -54 -1645 253 -2224 842 -474 482 -759
1085 -825 1746 -8 88 -8 459 1 542 55 503 210 933 483 1338 122 179 157 222
355 420 157 158 166 166 285 256 325 245 672 409 1058 503 114 28 333 65 437
75 82 7 534 -2 590 -13z m589 -5785 c8 -17 16 -48 19 -71 4 -36 1 -45 -23 -63
-14 -11 -32 -19 -40 -16 -34 14 -59 146 -33 172 22 22 62 10 77 -22z"/>
<path d="M3501 6057 c-11 -25 -45 -83 -76 -128 -85 -124 -154 -288 -194 -461
-29 -124 -32 -142 -38 -278 -7 -168 26 -371 92 -568 5 -15 -10 -8 -40 19 -43
37 -189 129 -206 129 -10 0 -24 -9 -32 -20 -14 -20 -16 -18 -56 34 -53 68
-180 191 -246 237 -98 68 -168 106 -187 101 -22 -5 -32 -41 -25 -90 3 -20 2
-91 -2 -157 -4 -66 -3 -133 1 -150 4 -16 24 -95 43 -175 38 -152 50 -184 118
-290 34 -54 149 -213 167 -230 3 -3 29 -33 59 -67 l53 -63 -59 0 c-90 -1 -276
-26 -408 -55 -66 -15 -172 -31 -235 -36 -137 -10 -167 -14 -287 -38 -175 -36
-300 -131 -318 -241 -6 -33 -17 -54 -46 -82 -52 -50 -71 -91 -77 -164 -4 -59
-3 -63 30 -100 28 -31 35 -48 36 -85 2 -55 16 -96 44 -126 23 -24 45 -32 393
-129 132 -36 248 -69 257 -71 14 -4 15 -9 6 -29 -25 -54 23 -132 106 -176 50
-26 549 -128 626 -128 l58 0 58 -66 c140 -161 235 -319 290 -484 27 -82 28
-93 32 -332 2 -137 7 -248 12 -248 4 0 21 11 36 24 16 14 39 33 52 43 20 16
24 34 38 158 23 214 71 424 117 511 l14 27 37 -63 c49 -83 83 -167 107 -258
16 -62 19 -111 19 -279 0 -144 3 -203 11 -203 6 0 28 15 49 34 20 18 42 35 47
37 6 2 16 58 22 124 23 244 63 400 141 555 46 91 140 219 202 275 25 22 86 92
136 155 141 176 135 170 176 170 28 0 36 -4 36 -18 0 -11 8 -26 18 -34 34 -29
356 -188 381 -188 53 1 123 45 184 118 36 45 34 30 -5 -32 -75 -119 -193 -229
-260 -243 -16 -3 -28 -9 -28 -12 0 -4 24 -19 53 -34 50 -26 155 -82 265 -142
l54 -29 53 28 c84 44 201 179 298 344 73 126 166 373 182 486 20 139 27 271
17 331 -16 96 -36 118 -140 153 -48 17 -133 46 -190 66 -57 20 -108 34 -113
30 -5 -3 -1 -17 10 -32 34 -48 51 -103 50 -161 l-1 -56 -14 41 c-23 65 -75
116 -238 238 -154 115 -207 148 -226 144 -6 -2 -24 33 -39 77 -36 107 -120
268 -188 361 l-55 75 17 67 c23 88 30 268 15 374 -16 116 -18 119 -77 88 -59
-31 -204 -150 -261 -215 -23 -26 -45 -45 -48 -42 -4 3 4 46 16 94 32 120 39
336 16 448 -9 43 -18 80 -20 83 -6 6 -76 -32 -130 -72 -27 -19 -53 -33 -58
-30 -4 3 -8 21 -8 41 0 56 -49 260 -85 353 -56 146 -161 340 -184 340 -6 0
-19 -20 -30 -45 -11 -24 -41 -75 -68 -112 l-47 -67 -12 60 c-31 151 -113 357
-200 505 -64 108 -69 111 -93 56z m348 -1289 c25 -40 60 -89 79 -110 37 -41
37 -41 -14 -116 -42 -61 -119 -230 -158 -347 -50 -148 -87 -302 -126 -525 -17
-102 -34 -192 -37 -200 -13 -35 -24 67 -30 278 l-6 222 27 25 c15 14 39 51 54
83 25 53 27 65 25 177 -1 66 -4 138 -5 160 -3 37 -1 40 27 46 17 4 22 7 11 8
-21 1 -21 -1 19 146 26 96 75 225 85 225 3 0 25 -33 49 -72z m631 -469 c69
-35 109 -63 133 -92 19 -23 50 -58 68 -77 116 -120 266 -392 284 -514 8 -51
29 -70 67 -61 18 5 57 -19 183 -113 88 -66 172 -132 187 -148 76 -82 80 -207
12 -418 -71 -222 -230 -436 -324 -436 -28 0 -340 162 -340 176 0 6 11 17 25
24 14 7 25 21 25 30 0 24 -20 40 -39 31 -16 -8 -101 -24 -191 -36 -25 -3 -56
-8 -70 -10 -24 -5 -342 -35 -367 -35 -7 0 21 46 63 101 96 130 108 155 144
292 28 106 64 339 58 368 -5 20 68 41 173 49 52 4 119 15 148 25 60 20 64 28
6 15 -22 -5 -76 -10 -120 -10 -44 0 -109 -7 -145 -14 -36 -8 -66 -13 -66 -12
-1 0 -5 24 -8 51 -10 76 -38 185 -48 185 -16 0 -255 -246 -321 -330 -55 -71
-74 -88 -114 -102 -46 -17 -46 -18 -10 -13 20 3 37 3 37 0 0 -3 -17 -33 -38
-68 -85 -141 -173 -340 -218 -495 -13 -47 -26 -87 -28 -89 -2 -2 -19 -6 -37
-9 l-34 -6 6 189 c7 213 18 270 85 471 78 232 183 425 300 552 30 31 51 60 49
64 -3 3 -2 4 1 1 28 -20 228 254 315 431 23 46 44 84 46 84 3 0 49 -23 103
-51z m-1397 -558 c107 -115 152 -177 212 -296 83 -166 127 -306 150 -478 21
-163 17 -472 -6 -432 -3 6 -12 33 -19 60 -7 28 -35 107 -62 177 -26 70 -48
130 -48 132 0 2 14 9 30 16 17 7 30 16 30 20 0 5 3 15 6 23 3 10 -3 16 -21 19
-21 4 -28 1 -35 -18 -5 -13 -14 -24 -20 -24 -5 0 -26 33 -46 73 -67 133 -197
318 -292 417 -51 52 -92 98 -92 102 0 4 16 10 36 14 22 4 48 20 69 43 41 42
42 47 14 56 -16 5 -31 -2 -63 -33 -64 -63 -81 -66 -140 -21 -56 42 -161 105
-218 131 l-38 17 0 -113 0 -113 -142 -7 c-79 -4 -169 -12 -201 -18 -46 -9 -74
-8 -130 3 -42 8 -135 14 -224 14 -141 0 -153 1 -153 18 0 63 95 143 215 180
57 18 221 43 345 52 47 4 163 22 259 42 153 31 376 54 466 49 12 -1 61 -44
118 -105z m-1014 -275 c44 -9 89 -11 150 -5 47 4 138 10 202 14 l117 7 -5 -25
c-3 -14 2 -82 11 -152 9 -70 15 -129 13 -131 -11 -11 -167 -34 -197 -30 -19 3
-70 17 -114 31 -237 75 -511 86 -626 25 -57 -30 -88 85 -44 161 11 19 34 43
52 54 17 11 34 28 37 37 3 9 16 19 28 21 53 10 316 6 376 -7z m3621 -112 c85
-30 160 -61 167 -70 34 -46 40 -164 19 -344 -33 -276 -162 -562 -358 -792 -51
-60 -132 -118 -164 -118 -11 0 -28 6 -39 14 -11 7 -69 40 -130 72 -60 32 -123
65 -138 75 l-28 16 33 14 c40 16 149 123 207 202 23 32 76 127 116 212 113
236 157 400 158 595 1 93 -1 102 -41 184 -5 10 1 8 198 -60z m-3718 -149 c107
-15 275 -53 359 -80 44 -15 52 -15 127 5 44 11 86 20 94 20 8 0 22 -32 36 -82
23 -83 80 -207 111 -242 15 -18 15 -18 -14 -13 -135 24 -180 29 -252 25 -46
-2 -88 -10 -97 -17 -12 -10 -23 -11 -43 -3 -34 13 -176 54 -433 126 -232 65
-242 72 -239 168 2 51 6 62 27 76 50 33 168 39 324 17z m656 -403 c86 -16 96
-20 121 -52 41 -53 219 -230 231 -230 5 0 10 -7 10 -15 0 -8 -3 -15 -6 -15
-31 0 -561 113 -583 124 -59 31 -103 111 -71 131 6 3 10 14 10 24 0 18 28 34
75 44 42 9 123 5 213 -11z"/>
<path d="M1955 6405 c-18 -18 -25 -36 -26 -67 0 -24 -4 -65 -8 -93 l-6 -50
-34 73 c-19 39 -39 72 -45 72 -6 0 -21 -7 -33 -15 l-21 -15 47 -107 c80 -180
76 -174 110 -157 27 14 30 20 36 82 3 37 8 83 11 102 l6 35 33 -73 c19 -39 37
-72 40 -72 6 0 46 19 54 26 7 6 -123 284 -132 284 -4 0 -19 -11 -32 -25z"/>
<path d="M5091 6398 c-5 -13 -29 -66 -54 -119 -62 -134 -62 -131 -27 -151 l30
-17 26 52 c15 29 28 54 30 56 2 2 20 -4 39 -15 38 -20 39 -27 3 -98 -21 -41
-21 -41 25 -67 10 -6 20 -9 22 -7 6 6 125 269 125 277 0 8 -44 31 -59 31 -4 0
-16 -20 -27 -45 -20 -50 -24 -52 -65 -28 -34 21 -34 19 -9 74 l20 44 -21 18
c-29 23 -48 22 -58 -5z"/>
<path d="M1630 6199 c-100 -77 -96 -70 -65 -119 47 -75 67 -132 62 -175 -4
-26 -1 -47 9 -60 14 -19 15 -19 37 3 35 36 31 129 -10 210 -30 60 -31 62 -12
73 11 5 23 8 28 5 5 -3 33 -46 62 -96 30 -49 56 -90 59 -90 3 0 17 10 33 23
l27 22 -62 100 c-35 55 -72 113 -83 127 l-20 27 -65 -50z"/>
<path d="M5356 6163 c-27 -43 -56 -89 -66 -103 -42 -61 -43 -70 -19 -96 12
-13 26 -24 30 -24 5 0 20 20 35 45 38 66 48 58 41 -29 -7 -75 -7 -75 24 -97
16 -11 32 -19 34 -17 3 2 8 43 11 91 7 85 8 88 41 108 18 12 40 19 47 16 9 -4
22 5 32 20 16 25 16 27 -2 40 -25 18 -46 16 -99 -9 -24 -12 -47 -19 -51 -16
-3 4 6 27 21 53 l28 46 -23 25 c-13 13 -26 24 -30 24 -4 0 -28 -35 -54 -77z"/>
<path d="M1414 6025 c-13 -20 -15 -38 -9 -95 4 -38 3 -70 -1 -70 -5 1 -24 21
-42 46 l-34 46 -24 -23 c-13 -12 -24 -26 -24 -30 0 -4 39 -59 86 -123 72 -97
88 -114 103 -106 41 21 42 35 11 78 -48 67 -37 77 45 42 59 -25 57 -26 83 10
l22 30 -37 16 c-21 9 -56 22 -78 29 -38 12 -40 15 -47 61 -4 26 -3 53 2 59 8
9 -20 55 -34 55 -3 0 -13 -11 -22 -25z"/>
<path d="M5615 5999 c-100 -58 -135 -175 -76 -257 52 -70 126 -78 189 -18 48
44 62 77 62 141 0 51 -3 59 -38 96 -41 44 -99 60 -137 38z m98 -90 c32 -45
-29 -149 -87 -149 -42 0 -58 58 -31 110 30 58 91 78 118 39z"/>
<path d="M5842 5728 c-65 -61 -78 -69 -104 -66 -22 4 -37 -1 -50 -14 -22 -22
-18 -33 24 -54 43 -22 89 -7 156 52 53 46 54 47 72 28 19 -19 18 -21 -55 -102
-41 -45 -75 -86 -75 -90 0 -4 10 -19 23 -34 l22 -26 98 108 c53 60 97 112 97
117 -1 4 -31 40 -68 80 l-67 72 -73 -71z"/>
<path d="M966 5543 c-18 -25 -18 -27 4 -112 13 -47 25 -93 28 -101 3 -8 -21 9
-55 37 -56 49 -61 51 -75 35 -35 -41 -35 -41 141 -197 l43 -39 23 26 23 27
-24 88 c-13 48 -24 92 -24 97 0 5 22 -12 50 -38 27 -25 53 -46 58 -46 12 0 42
34 42 47 0 8 -154 154 -200 190 -12 9 -19 6 -34 -14z"/>
<path d="M6018 5501 c-49 -31 -88 -96 -88 -146 0 -42 35 -108 69 -128 89 -52
209 24 219 139 5 62 -21 114 -72 145 -43 26 -75 24 -128 -10z m114 -68 c31
-28 23 -76 -17 -112 -82 -71 -157 -3 -88 79 41 49 76 60 105 33z"/>
<path d="M6289 5253 c-13 -10 -66 -48 -117 -85 l-93 -69 18 -29 c19 -32 34
-37 55 -17 32 31 150 108 156 102 4 -3 22 -34 42 -67 19 -34 40 -63 45 -64 6
-2 19 3 30 12 19 14 19 15 -10 67 -16 29 -45 78 -65 109 -36 57 -36 58 -61 41z"/>
<path d="M784 5240 c-29 -11 -70 -63 -84 -104 -17 -53 3 -112 53 -158 88 -82
194 -53 228 62 16 52 0 108 -43 151 -51 51 -106 68 -154 49z m66 -85 c36 -18
70 -61 70 -88 0 -28 -28 -57 -57 -57 -32 0 -103 66 -103 96 0 24 31 64 50 64
6 0 24 -7 40 -15z"/>
<path d="M604 4945 c-8 -21 -14 -38 -12 -40 2 -1 22 -13 45 -26 l42 -25 -19
-42 -20 -43 -45 27 c-25 14 -47 25 -49 23 -8 -11 -28 -70 -25 -73 20 -20 243
-136 248 -130 4 5 12 21 19 36 11 26 9 29 -36 55 -26 14 -49 28 -51 30 -6 4
31 83 38 83 3 0 24 -11 46 -25 22 -13 43 -25 47 -25 7 0 38 52 38 63 0 5 -82
54 -193 116 l-57 33 -16 -37z"/>
<path d="M6339 4911 l-117 -67 15 -36 15 -37 79 -7 c44 -4 81 -10 84 -13 2 -4
-22 -22 -53 -41 -31 -18 -58 -34 -60 -36 -5 -3 28 -64 34 -64 6 0 235 128 243
136 2 2 -2 17 -9 33 -11 28 -16 30 -101 42 -49 7 -89 15 -89 18 0 4 19 16 43
29 74 40 78 45 66 81 -6 17 -16 31 -22 30 -7 0 -64 -31 -128 -68z"/>
<path d="M476 4658 c-3 -7 -6 -22 -9 -33 -3 -11 -21 -73 -40 -137 l-34 -117
24 -6 c33 -8 38 -3 53 50 7 25 15 45 18 45 3 0 50 -16 104 -36 54 -20 101 -34
104 -31 3 2 7 20 10 39 l6 34 -85 32 c-46 18 -89 32 -95 32 -21 0 -23 20 -8
70 l15 51 -25 9 c-32 13 -34 13 -38 -2z"/>
<path d="M6561 4640 c-84 -33 -114 -80 -94 -149 6 -20 12 -42 14 -50 3 -9 -11
-20 -36 -29 -22 -9 -42 -17 -43 -18 -7 -5 19 -74 27 -74 8 0 252 88 257 93 4
4 -16 77 -21 77 -2 0 -28 -9 -57 -21 -50 -20 -53 -20 -66 -2 -7 10 -12 31 -10
48 3 25 10 32 52 46 26 10 50 20 53 23 7 6 -17 76 -25 75 -4 -1 -27 -9 -51
-19z"/>
<path d="M366 4264 c-49 -145 19 -262 147 -251 54 5 86 29 112 84 15 32 26
145 15 156 -3 3 -18 9 -34 13 -28 7 -29 6 -23 -27 15 -95 -37 -162 -109 -139
-64 22 -79 71 -44 149 11 24 19 45 18 46 -2 2 -17 6 -34 9 -31 7 -32 5 -48
-40z"/>
<path d="M6564 4279 c-94 -27 -126 -137 -77 -262 15 -36 18 -38 46 -33 17 3
32 8 34 9 1 2 -6 22 -17 45 -31 63 -26 136 10 144 10 2 18 -18 30 -82 12 -66
19 -86 33 -88 28 -5 102 35 118 65 33 62 -1 167 -65 197 -37 18 -65 19 -112 5z"/>
<path d="M543 3939 c-6 -20 -10 -21 -94 -14 -55 4 -95 3 -107 -4 -26 -14 -42
-62 -42 -125 0 -82 7 -96 46 -96 32 0 33 1 23 29 -15 44 -8 105 14 109 13 3
17 -3 17 -25 0 -82 47 -153 101 -153 60 0 104 82 81 150 -8 23 -8 36 3 57 25
47 16 93 -17 93 -12 0 -22 -9 -25 -21z"/>
<path d="M6580 3922 c-64 -32 -90 -127 -62 -228 11 -38 14 -40 43 -36 26 4 30
8 25 26 -27 93 -16 145 35 166 74 31 126 -22 115 -117 l-6 -54 32 3 33 3 0 75
c0 87 -20 137 -64 163 -37 22 -106 22 -151 -1z"/>
<path d="M428 3592 l-138 -3 0 -57 c0 -31 3 -80 6 -108 l6 -51 87 -6 c99 -6
118 -11 126 -38 9 -27 65 -27 65 1 0 63 -56 107 -151 117 -65 6 -79 14 -79 46
0 14 10 17 69 17 37 0 89 3 115 6 44 6 46 8 46 40 0 18 -3 34 -7 36 -5 2 -70
2 -145 0z"/>
<path d="M6520 3540 l0 -40 55 0 c30 0 55 -4 55 -10 0 -5 -25 -26 -55 -46 -53
-35 -55 -39 -55 -81 0 -33 3 -42 13 -37 14 9 53 34 97 64 28 19 31 19 65 3 19
-9 37 -24 40 -34 3 -9 19 -19 36 -21 31 -5 31 -5 26 35 -3 22 -12 44 -19 48
-39 22 -82 56 -86 67 -3 8 12 12 52 12 l56 0 0 40 0 40 -140 0 -140 0 0 -40z"/>
<path d="M414 3270 c-18 -6 -46 -26 -63 -45 -24 -28 -31 -45 -31 -78 0 -24 7
-52 15 -63 21 -27 18 -36 -7 -28 -40 12 -55 33 -67 95 -12 60 -13 60 -44 57
-22 -2 -31 -8 -29 -18 2 -8 10 -44 17 -79 20 -91 58 -128 140 -137 86 -9 179
16 224 60 60 60 50 168 -19 218 -31 22 -95 30 -136 18z m116 -100 c11 -11 20
-26 20 -33 0 -26 -32 -57 -70 -68 -37 -11 -42 -10 -65 11 -32 30 -33 73 -3 94
32 23 94 20 118 -4z"/>
<path d="M6504 3244 c-6 -35 -4 -38 67 -105 72 -68 73 -70 39 -62 -19 4 -55 8
-80 8 -45 0 -45 0 -45 -35 l0 -34 110 -17 c61 -9 121 -18 135 -20 22 -4 25 0
28 33 3 35 -2 42 -63 100 -37 34 -63 64 -57 66 5 1 36 -1 68 -7 68 -10 84 -3
84 40 0 22 -5 30 -22 33 -32 7 -234 36 -247 36 -6 0 -13 -16 -17 -36z"/>
<path d="M6456 2925 c-6 -31 -2 -41 53 -107 32 -40 58 -74 56 -76 -1 -2 -32 5
-69 14 -36 10 -68 16 -71 13 -2 -3 -8 -19 -11 -37 -6 -30 -6 -31 52 -47 33 -9
90 -25 128 -36 37 -11 74 -18 81 -15 7 2 15 17 18 32 4 23 -5 40 -54 99 -32
40 -59 74 -59 78 0 3 30 -3 67 -14 37 -10 70 -15 74 -11 4 4 10 21 13 37 l6
30 -132 38 c-73 21 -136 38 -139 37 -4 0 -10 -16 -13 -35z"/>
<path d="M464 2931 c-59 -27 -84 -67 -84 -133 0 -133 106 -196 218 -127 53 31
74 75 68 137 -6 62 -24 95 -69 122 -40 25 -80 25 -133 1z m124 -83 c39 -50 6
-107 -69 -115 -54 -6 -79 12 -79 58 0 22 8 34 33 49 36 22 99 26 115 8z"/>
<path d="M706 2279 c-60 -37 -113 -72 -118 -77 -6 -6 -4 -21 6 -41 15 -27 21
-31 60 -31 24 0 65 -3 91 -7 l47 -6 -53 -34 c-30 -19 -60 -38 -68 -42 -11 -7
-10 -13 3 -39 9 -18 19 -32 23 -32 7 0 49 25 160 97 l83 52 -18 30 c-19 34
-36 41 -109 41 -86 0 -90 8 -23 51 64 41 70 55 43 87 -18 19 -19 19 -127 -49z"/>
<path d="M856 1985 c-60 -46 -110 -86 -113 -89 -2 -2 3 -19 12 -36 l17 -32 89
4 c49 2 89 2 88 -1 0 -3 -27 -26 -59 -51 l-58 -45 17 -28 c10 -16 21 -30 24
-30 9 -3 226 166 226 176 1 4 -6 19 -15 32 -15 24 -22 25 -108 25 -102 1 -100
-5 -12 64 41 32 43 41 18 73 l-17 23 -109 -85z"/>
<path d="M6111 2039 l-19 -31 29 -86 c16 -47 27 -88 24 -90 -3 -3 -28 14 -56
38 l-52 44 -18 -23 c-11 -13 -19 -29 -19 -36 0 -7 37 -41 83 -76 45 -35 84
-66 87 -69 3 -3 16 -13 30 -22 25 -15 26 -15 42 13 16 28 16 32 -13 115 -16
48 -28 89 -25 91 2 3 28 -14 56 -36 29 -23 55 -41 59 -41 4 0 15 13 24 29 l17
30 -72 57 c-40 32 -92 73 -115 91 l-43 34 -19 -32z"/>
<path d="M1096 1731 c-27 -87 -28 -89 -62 -96 -19 -3 -43 -4 -53 0 -11 3 -25
-3 -36 -15 -18 -19 -17 -21 1 -41 17 -19 26 -20 86 -14 38 3 68 2 68 -2 0 -5
-16 -24 -35 -43 -40 -39 -42 -49 -15 -80 l19 -22 107 104 106 104 -25 30 -26
29 -40 -39 c-22 -22 -44 -36 -48 -33 -4 4 3 38 15 74 l21 67 -25 33 c-14 18
-26 33 -27 33 -2 0 -15 -40 -31 -89z"/>
<path d="M5911 1733 c-32 -16 -83 -82 -97 -126 -5 -17 20 -57 36 -57 5 0 15
17 23 39 16 40 59 81 84 81 25 0 71 -32 82 -57 21 -46 13 -74 -34 -121 l-46
-46 21 -20 c19 -19 22 -20 48 -6 15 9 42 38 60 65 30 45 34 56 30 106 -5 64
-39 118 -93 143 -42 20 -71 20 -114 -1z"/>
<path d="M1297 1542 c-19 -21 -22 -42 -7 -42 20 0 79 -62 85 -90 11 -48 -42
-120 -89 -120 -22 0 -72 46 -86 80 l-13 31 -23 -22 c-13 -13 -24 -25 -24 -29
0 -4 14 -27 30 -52 39 -59 102 -94 152 -84 39 7 101 66 118 112 29 75 -7 160
-89 216 -32 22 -34 22 -54 0z"/>
<path d="M5738 1533 l-27 -28 75 -87 c64 -76 73 -90 63 -106 -31 -50 -43 -45
-119 44 -40 46 -76 84 -79 84 -4 0 -17 -13 -28 -28 l-21 -28 65 -74 c96 -111
124 -140 133 -140 4 0 38 35 76 78 38 42 72 79 76 82 3 3 -22 37 -55 76 -34
38 -78 89 -97 113 l-35 43 -27 -29z"/>
<path d="M5486 1289 c-19 -16 -38 -38 -41 -48 -3 -10 -19 -21 -35 -24 -16 -4
-37 -18 -46 -32 -16 -24 -16 -27 1 -45 15 -16 21 -18 33 -8 16 14 17 13 82
-81 61 -88 104 -91 177 -15 47 49 52 70 25 104 l-19 23 -20 -39 c-25 -48 -69
-77 -83 -54 -6 11 -2 22 14 40 60 64 70 138 25 186 -31 33 -71 31 -113 -7z"/>
<path d="M1515 1296 c-39 -17 -93 -78 -101 -114 -3 -15 -7 -33 -10 -40 -14
-46 34 -118 87 -129 l32 -6 -24 -18 c-34 -26 -61 -23 -104 11 -46 36 -58 37
-79 6 -17 -27 -18 -26 96 -95 57 -34 99 -19 170 57 70 77 98 134 98 203 0 46
-4 59 -29 87 -28 30 -68 52 -94 52 -7 -1 -26 -7 -42 -14z m97 -91 c9 -21 8
-34 -8 -72 -23 -56 -43 -71 -80 -58 -55 20 -57 74 -4 126 37 37 76 39 92 4z"/>
<path d="M1746 1119 c-16 -28 -16 -29 1 -35 85 -28 116 -56 111 -104 l-3 -31
-72 50 c-40 28 -74 51 -76 51 -11 0 -47 -102 -47 -132 1 -68 55 -118 127 -118
75 0 143 78 143 164 0 25 -4 55 -9 68 -14 37 -70 86 -116 101 -42 15 -42 15
-59 -14z"/>
<path d="M5281 1131 l-24 -19 31 -55 31 -55 -37 -26 c-33 -24 -37 -24 -46 -8
-5 9 -20 34 -33 55 l-23 37 -30 -22 -30 -22 26 -45 c15 -25 49 -85 77 -133
l51 -87 28 17 c34 20 35 32 3 82 l-25 39 36 28 c40 30 39 31 76 -37 l18 -31
30 21 c35 25 40 9 -57 173 -35 59 -67 107 -71 107 -4 0 -18 -9 -31 -19z"/>
<path d="M2046 845 c-27 -58 -51 -105 -55 -105 -3 0 -25 11 -47 24 l-41 23
-17 -28 c-19 -32 -33 -20 123 -113 52 -31 99 -56 106 -56 11 0 40 49 33 55 -2
1 -16 10 -33 18 -59 32 -59 26 -5 141 28 60 49 109 48 111 -29 20 -54 35 -58
35 -3 0 -28 -47 -54 -105z"/>
<path d="M4966 936 c-22 -8 -55 -30 -73 -48 -31 -31 -33 -36 -22 -66 l11 -33
44 41 c60 55 107 52 139 -10 35 -67 4 -132 -69 -145 -38 -8 -44 -21 -26 -56
15 -26 36 -24 96 11 39 22 57 41 74 76 21 42 22 51 11 99 -8 37 -24 66 -49 94
-43 48 -79 57 -136 37z"/>
<path d="M2240 713 c-23 -76 -45 -143 -47 -149 -2 -7 10 -16 26 -22 29 -10 35
-8 104 48 39 32 73 57 74 56 2 -2 -9 -36 -23 -76 -24 -70 -25 -75 -8 -87 43
-31 51 -20 99 130 42 131 44 143 28 155 -29 21 -50 14 -117 -44 -37 -31 -66
-49 -66 -41 0 8 9 40 20 72 24 71 24 71 3 78 -10 2 -25 8 -34 11 -13 6 -23
-19 -59 -131z"/>
<path d="M4670 799 c-13 -6 -39 -21 -56 -34 -30 -23 -32 -27 -22 -59 l11 -34
44 34 c51 39 80 42 114 15 l24 -20 -35 -15 c-140 -59 -130 -52 -120 -87 21
-71 58 -108 110 -109 97 0 154 95 123 206 -21 73 -67 114 -126 113 -23 0 -53
-5 -67 -10z"/>
<path d="M2555 688 c-37 -33 -44 -90 -17 -128 21 -27 21 -29 3 -35 -43 -13
-59 -99 -25 -136 25 -28 45 -38 120 -59 58 -16 64 -16 68 -1 26 97 78 332 74
336 -10 10 -143 45 -170 45 -15 0 -39 -10 -53 -22z"/>
</g>
</svg>
